<svg width="149.167" height="172.243" xmlns="http://www.w3.org/2000/svg">

  <polygon id="svg_1" points="149.167,129.183 74.583,172.243 0,129.183 0,43.061 74.583,0 149.167,43.061 " fill="#585858"/>
  <g stroke="null" id="svg_7">
   <path stroke="null" fill="#ffffff" id="svg_6" d="m90.444107,106.822724l-31.721213,0l0,-48.302844l31.721213,0m-9.818471,58.653453l-12.084271,0l0,-3.450203l12.084271,0m6.042136,-65.553859l-24.168543,0a9.063204,10.350609 0 0 0 -9.063204,10.350609l0,55.20325a9.063204,10.350609 0 0 0 9.063204,10.350609l24.168543,0a9.063204,10.350609 0 0 0 9.063204,-10.350609l0,-55.20325a9.063204,10.350609 0 0 0 -9.063204,-10.350609z"/>
  </g>

</svg>